<svg width="40" height="40" viewBox="0 0 40 40" fill="none" xmlns="http://www.w3.org/2000/svg">
<rect width="40" height="40" rx="8" fill="#121419"/>
<g transform="translate(8 8) scale(1.2)">
<path fill-rule="evenodd" clip-rule="evenodd" d="M9.12376 0.307543C9.73739 -0.107617 10.5433 -0.102003 11.1511 0.321664L19.2334 5.95557C19.7137 6.29041 20 6.83896 20 7.4245V19.8479H17.8465V7.97644C17.8465 7.74928 17.7355 7.53646 17.5491 7.40656L10.5155 2.50361C10.2797 2.33925 9.96701 2.33707 9.72895 2.49813L2.45887 7.41684C2.26789 7.54605 2.15347 7.76161 2.15347 7.9922V17.1734C2.15347 17.4612 2.38673 17.6944 2.67447 17.6944H12.7677C13.0554 17.6944 13.2887 17.4612 13.2887 17.1734V10.2171C13.2887 9.98136 13.1692 9.76172 12.9712 9.63373L10.5833 8.08975C10.3012 7.90739 9.93932 7.90403 9.65395 8.08112L7.12847 9.64827C6.92428 9.77497 6.80008 9.99822 6.80008 10.2385V15.0293H4.64661V9.65016C4.64661 9.03073 4.96675 8.4553 5.49308 8.12869L9.18121 5.84007C9.76968 5.4749 10.516 5.48184 11.0976 5.85788L14.6238 8.13785C15.1341 8.46776 15.4422 9.03391 15.4422 9.64152V18.0573C15.4422 19.0462 14.6405 19.8479 13.6516 19.8479H1.7906C0.801677 19.8479 0 19.0462 0 18.0573V7.43085C0 6.83648 0.294928 6.28086 0.787209 5.9478L9.12376 0.307543Z" fill="#FFFFFF"/>
</g>
</svg>
