<svg width="40" height="40" viewBox="0 0 40 40" fill="none" xmlns="http://www.w3.org/2000/svg">
  <rect width="40" height="40" rx="8" fill="#121419"/>
  <g transform="translate(11 8)">
    <path fill-rule="evenodd" clip-rule="evenodd" d="M15.3389 6.0181L6.50037 0.63127C3.65384 -1.10242 0 0.939567 0 4.26506V19.4155C0 22.4392 1.78163 24 4.07048 24C6.21703 24 7.97542 22.3424 8.12934 20.2424C10.228 20.0231 11.9593 18.2559 11.8635 15.8617L15.7154 13.514C17.0778 12.6832 17.7597 11.2824 17.7597 9.8802C17.7597 8.47803 17.281 7.09134 15.3389 6.01551V6.0181ZM4.07048 21.5878C3.15961 21.5878 2.42215 20.8512 2.42215 19.9444C2.42215 19.0376 3.15961 18.2998 4.07048 18.2998C4.98134 18.2998 5.72018 19.0363 5.72018 19.9444C5.72018 20.8525 4.98134 21.5878 4.07048 21.5878ZM9.44272 16.1055C9.44272 16.7259 9.04158 17.8521 7.55753 17.8521C7.38926 17.5747 7.18874 17.3168 6.96236 17.0885C6.73336 16.8601 6.47838 16.6576 6.20153 16.486C5.58176 16.1055 4.85203 15.8862 4.07048 15.8862C3.53227 15.8862 3.01857 15.9907 2.54895 16.1791C2.50748 16.1958 2.46088 16.2152 2.42078 16.2332V12.5994C2.42078 11.6345 3.20496 10.8528 4.17268 10.8528H7.68946C8.65729 10.8528 9.44135 11.6345 9.44135 12.5994V16.1055H9.44272ZM14.4526 11.4578L11.8635 13.0354V12.5981C11.8635 10.3007 9.99517 8.43805 7.69083 8.43805H4.17405C3.54903 8.43805 2.95522 8.57477 2.42215 8.82245V4.26635C2.42215 2.82547 4.00451 1.93928 5.23883 2.69132L14.4539 8.30776C15.6351 9.02755 15.6351 10.738 14.4539 11.4578H14.4526Z" fill="white"/>
  </g>
</svg>
