<svg width="40" height="40" viewBox="0 0 40 40" fill="none" xmlns="http://www.w3.org/2000/svg">
  <rect width="40" height="40" rx="8" fill="#121419"/>
  <g transform="translate(7.063 7.12)">
    <path d="M 23.19 4.986 C 23.797 5.779 24.316 6.634 24.74 7.538 L 12.937 16.204 L 7.989 13.117 L 7.989 9.437 L 12.937 12.524 Z M 2.98 12.88 L 2.98 12.346 L 0 12.168 L 0 12.821 C 0 16.381 1.43 19.587 3.815 21.961 L 5.962 19.825 C 4.114 18.044 2.98 15.61 2.98 12.88 Z M 12.937 2.968 L 13.473 2.968 L 13.653 0 L 12.996 0 C 9.42 0 6.2 1.425 3.816 3.799 L 5.962 5.935 C 7.691 4.095 10.194 2.968 12.937 2.968 Z M 12.937 22.792 L 12.4 22.792 L 12.221 25.76 L 12.877 25.76 C 16.454 25.76 19.673 24.335 22.058 21.961 L 19.912 19.825 C 18.183 21.665 15.679 22.792 12.937 22.792 Z" fill="#FFFFFF"/>
    <path d="M 18.54 4.689 L 21.045 2.849 C 18.746 1.004 15.885 -0.001 12.937 0 L 12.937 2.968 C 15.023 2.968 16.931 3.561 18.541 4.689 Z M 25.874 12.88 C 25.874 12.108 25.814 11.337 25.694 10.565 L 22.893 12.643 L 22.893 12.88 C 22.893 15.788 21.641 18.4 19.613 20.24 L 21.641 22.436 C 24.204 20.062 25.874 16.619 25.874 12.88 Z M 12.937 22.792 C 10.123 22.796 7.438 21.61 5.544 19.528 L 3.34 21.546 C 5.724 24.157 9.122 25.76 12.938 25.76 L 12.938 22.792 Z M 6.26 5.52 L 4.233 3.324 C 1.526 5.761 -0.014 9.237 0 12.88 L 2.98 12.88 C 2.98 9.972 4.233 7.3 6.26 5.52 Z" fill="#FFFFFF"/>
  </g>
</svg>
