<svg width="40" height="40" viewBox="0 0 40 40" fill="none" xmlns="http://www.w3.org/2000/svg">
  <rect width="40" height="40" rx="8" fill="#121419"/>
  <g transform="translate(8 8.5)">
    <path d="M22.099 5.162C20.816 3.123 18.959 1.421 16.829 0.556L16.198 0.338C15.502 0.118 14.778 0.005 14.05 0C11.742 0.011 9.874 1.957 9.874 4.358C9.874 5.358 10.198 6.278 10.741 7.01L10.48 6.661C10.606 6.851 10.741 7.038 10.899 7.228C11.561 8.045 12.502 8.893 13.72 9.856C16.719 12.221 18.663 14.319 18.824 16.919C18.862 17.27 18.886 17.629 18.886 17.991C18.886 19.313 18.604 20.712 18.122 21.696H18.127C18.127 21.696 17.921 22.08 18.05 22.192C18.116 22.25 18.259 22.294 18.509 22.138C19.852 21.247 21.009 20.094 21.911 18.744C23.241 16.747 23.966 14.396 23.999 11.982C24.034 9.568 23.374 7.197 22.099 5.162Z" fill="#FFFFFF"/>
    <path d="M13.003 14.046L11.125 12.467C7.191 9.542 5.145 6.386 6.267 2.496C6.368 2.142 6.493 1.798 6.636 1.461V1.457C6.636 1.457 6.914 0.863 6.309 1.156C4.495 2.16 2.963 3.622 1.862 5.403C0.76 7.183 0.125 9.221 0.017 11.323C-0.124 14.004 0.597 16.66 2.07 18.886C2.665 19.737 3.392 20.484 4.224 21.095H4.221C8.368 24.207 11.926 22.569 11.926 22.569H11.929C12.811 22.19 13.563 21.553 14.091 20.738C14.618 19.923 14.896 18.967 14.891 17.991C14.895 17.23 14.727 16.479 14.399 15.794C14.072 15.11 13.593 14.513 13.002 14.048L13.003 14.046Z" fill="#FFFFFF"/>
  </g>
</svg>
